<svg xmlns="http://www.w3.org/2000/svg" viewBox="0 0 23 23"><path d="M1 1h7v7h-7zM12 1h1v2h1v1h-1v1h1v6h-1v-2h-1v1h-1v-1h-2v-6h1v-1h2zM15 1h7v7h-7zM2 2v5h5v-5zM16 2v5h5v-5zM3 3h3v3h-3zM11 3v3h1v2h1v-2h-1v-3zM17 3h3v3h-3zM10 7v1h1v-1zM1 9h1v1h1v1h1v2h-1v-1h-1v-1h-1zM3 9h5v1h-2v2h1v1h-2v-2h-1v-1h-1zM15 9h5v3h1v1h-3v-1h1v-2h-4zM9 10h2v4h1v2h-1v-1h-2v-1h-2v-1h3v-2h-1zM21 10h1v1h-1zM7 11h2v1h-2zM12 11h1v1h-1zM14 11h1v3h-1zM16 12h1v2h2v1h-2v1h-2v-1h1zM2 13h1v1h-1zM4 13h1v1h-1zM12 13h1v1h-1zM21 13h1v1h-1zM13 14h1v2h-1zM1 15h7v7h-7zM19 15h2v1h-1v1h-2v-1h1zM2 16v5h5v-5zM9 16h1v3h1v1h1v1h-2v-1h-1zM12 16h1v1h-1zM3 17h3v3h-3zM11 17h1v1h1v1h-2zM13 17h1v1h-1zM15 17h1v1h-1zM20 17h2v1h-2zM16 18h3v2h1v1h-1v1h-1v-1h-2v-1h2v-1h-2zM13 19h2v1h-1v2h-1zM9 21h1v1h-1zM15 21h1v1h-1zM20 21h1v1h-1z"/></svg>