<svg xmlns="http://www.w3.org/2000/svg" viewBox="0 0 23 23"><path d="M1 1h7v7h-7zM10 1h3v1h-1v1h-1v-1h-1zM15 1h7v7h-7zM2 2v5h5v-5zM9 2h1v1h1v1h-1v1h-1zM16 2v5h5v-5zM3 3h3v3h-3zM17 3h3v3h-3zM11 4h3v5h2v1h2v1h-3v-1h-1v1h-1v-2h-1v-1h1v-2h-1v-1h-1zM10 5h1v2h-1zM9 7h1v2h1v2h-1v-1h-1zM11 7h1v1h-1zM1 9h1v1h-1zM7 9h1v1h-1zM18 9h3v1h-1v2h1v2h-1v-1h-1v2h-2v-1h-2v-1h3v-1h1v-2h-1zM3 10h2v1h1v1h1v1h3v1h1v-3h2v1h-1v3h-3v-1h-4v-2h-1v2h-1v-2h-1v-1h1zM6 10h1v1h-1zM8 10h1v2h-2v-1h1zM14 11h1v2h-1zM1 12h1v1h-1zM13 14h1v4h-1v1h1v3h-1v-2h-1v1h-1v1h-2v-1h1v-4h3zM1 15h7v7h-7zM15 15h2v1h2v-1h2v1h-1v1h-4v1h-1zM2 16v5h5v-5zM21 16h1v2h-2v-1h1zM3 17h3v3h-3zM17 18h2v1h-1v1h2v1h-1v1h-1v-1h-1zM15 19h1v1h-1zM20 19h2v1h-2zM15 21h1v1h-1zM20 21h1v1h-1z"/></svg>